<svg width="40" height="40" viewBox="0 0 40 40" fill="none" xmlns="http://www.w3.org/2000/svg">
<g id="devicon:facebook">
<path id="Vector" d="M36.4535 1.50977H3.55039C2.42338 1.50977 1.50977 2.42338 1.50977 3.55039V36.4535C1.50977 37.5805 2.42338 38.4941 3.55039 38.4941H36.4535C37.5805 38.4941 38.4941 37.5805 38.4941 36.4535V3.55039C38.4941 2.42338 37.5805 1.50977 36.4535 1.50977Z" fill="#292929"/>
<path id="Vector_2" d="M27.0246 38.4912V24.1693H31.8309L32.5496 18.5881H27.0246V15.0256C27.0246 13.4099 27.4746 12.3068 29.7902 12.3068H32.7465V7.30681C31.315 7.15761 29.8764 7.08667 28.4371 7.09431C24.1809 7.09431 21.2496 9.68806 21.2496 14.4724V18.5881H16.4434V24.1693H21.2496V38.4912H27.0246Z" fill="white" fill-opacity="0.8"/>
</g>
</svg>
