<svg width="40" height="40" viewBox="0 0 40 40" fill="none" xmlns="http://www.w3.org/2000/svg">
<g id="devicon:linkedin" clip-path="url(#clip0_660_5464)">
<path id="Vector" d="M36.25 0.937644H3.75C3.0126 0.93014 2.30233 1.21547 1.77506 1.73103C1.24778 2.24659 0.946566 2.95026 0.9375 3.68764V36.3189C0.948206 37.0552 1.25014 37.7573 1.77724 38.2715C2.30434 38.7857 3.01367 39.0702 3.75 39.0626H36.25C36.9874 39.0685 37.6972 38.7822 38.2242 38.2663C38.7512 37.7504 39.0526 37.0469 39.0625 36.3095V3.67827C39.0493 2.94305 38.7465 2.24273 38.2199 1.72954C37.6932 1.21635 36.9853 0.931763 36.25 0.937644Z" fill="#292929"/>
<path id="Vector_2" d="M6.58086 15.2285H12.2402V33.4379H6.58086V15.2285ZM9.41211 6.16602C10.0612 6.16602 10.6957 6.35854 11.2354 6.71922C11.7751 7.07991 12.1956 7.59256 12.4439 8.19231C12.6921 8.79206 12.7569 9.45197 12.6301 10.0886C12.5032 10.7251 12.1904 11.3098 11.7312 11.7686C11.272 12.2273 10.687 12.5396 10.0503 12.6658C9.41363 12.7921 8.75378 12.7267 8.15426 12.4778C7.55475 12.229 7.0425 11.808 6.68233 11.268C6.32216 10.7279 6.13024 10.0932 6.13086 9.44414C6.13169 8.57444 6.47776 7.74064 7.09302 7.12597C7.70828 6.51129 8.54241 6.16602 9.41211 6.16602ZM15.7902 15.2285H21.2152V17.7285H21.2902C22.0465 16.2973 23.8902 14.7879 26.6434 14.7879C32.3746 14.7754 33.4371 18.5473 33.4371 23.4379V33.4379H27.7777V24.5785C27.7777 22.4691 27.7402 19.7535 24.8371 19.7535C21.934 19.7535 21.4402 22.0535 21.4402 24.441V33.4379H15.7902V15.2285Z" fill="white" fill-opacity="0.8"/>
</g>
<defs>
<clipPath id="clip0_660_5464">
<rect width="40" height="40" fill="white"/>
</clipPath>
</defs>
</svg>
